<mxfile host="app.diagrams.net" modified="2022-08-11T05:08:18.994Z" agent="5.0 (Windows NT 10.0; Win64; x64) AppleWebKit/537.36 (KHTML, like Gecko) Chrome/104.0.0.0 Safari/537.36" etag="hu5aRmfAXVvPxeLVsp81" version="20.2.3" type="github">
  <diagram id="IXh_A6Cch-o2Pdw9XIcJ" name="第 1 页">
    <mxGraphModel dx="1087" dy="705" grid="1" gridSize="10" guides="1" tooltips="1" connect="1" arrows="1" fold="1" page="1" pageScale="1" pageWidth="827" pageHeight="1169" math="0" shadow="0">
      <root>
        <mxCell id="0" />
        <mxCell id="1" parent="0" />
        <mxCell id="PTjTulGfdA1MYqJNyn4J-6" value="" style="edgeStyle=orthogonalEdgeStyle;rounded=0;orthogonalLoop=1;jettySize=auto;html=1;" edge="1" parent="1" source="PTjTulGfdA1MYqJNyn4J-1" target="PTjTulGfdA1MYqJNyn4J-5">
          <mxGeometry relative="1" as="geometry" />
        </mxCell>
        <mxCell id="PTjTulGfdA1MYqJNyn4J-1" value="获取 Ghost &lt;br&gt;镜像压缩包" style="rounded=0;whiteSpace=wrap;html=1;" vertex="1" parent="1">
          <mxGeometry x="100" y="100" width="120" height="60" as="geometry" />
        </mxCell>
        <mxCell id="PTjTulGfdA1MYqJNyn4J-8" value="" style="edgeStyle=orthogonalEdgeStyle;rounded=0;orthogonalLoop=1;jettySize=auto;html=1;" edge="1" parent="1" source="PTjTulGfdA1MYqJNyn4J-5" target="PTjTulGfdA1MYqJNyn4J-7">
          <mxGeometry relative="1" as="geometry" />
        </mxCell>
        <mxCell id="PTjTulGfdA1MYqJNyn4J-5" value="解压镜像压缩包" style="whiteSpace=wrap;html=1;rounded=0;" vertex="1" parent="1">
          <mxGeometry x="100" y="240" width="120" height="60" as="geometry" />
        </mxCell>
        <mxCell id="PTjTulGfdA1MYqJNyn4J-10" value="" style="edgeStyle=orthogonalEdgeStyle;rounded=0;orthogonalLoop=1;jettySize=auto;html=1;" edge="1" parent="1" source="PTjTulGfdA1MYqJNyn4J-7" target="PTjTulGfdA1MYqJNyn4J-9">
          <mxGeometry relative="1" as="geometry" />
        </mxCell>
        <mxCell id="PTjTulGfdA1MYqJNyn4J-7" value="在 PC 上接入&lt;br&gt;工业爱智的硬盘" style="whiteSpace=wrap;html=1;rounded=0;" vertex="1" parent="1">
          <mxGeometry x="100" y="380" width="120" height="60" as="geometry" />
        </mxCell>
        <mxCell id="PTjTulGfdA1MYqJNyn4J-12" value="" style="edgeStyle=orthogonalEdgeStyle;rounded=0;orthogonalLoop=1;jettySize=auto;html=1;" edge="1" parent="1" source="PTjTulGfdA1MYqJNyn4J-9" target="PTjTulGfdA1MYqJNyn4J-11">
          <mxGeometry relative="1" as="geometry">
            <Array as="points">
              <mxPoint x="250" y="555" />
              <mxPoint x="250" y="80" />
              <mxPoint x="354" y="80" />
            </Array>
          </mxGeometry>
        </mxCell>
        <mxCell id="PTjTulGfdA1MYqJNyn4J-9" value="使用 DiskGenius&lt;br&gt;拷贝 Ghost 镜像&lt;br&gt;至硬盘" style="whiteSpace=wrap;html=1;rounded=0;" vertex="1" parent="1">
          <mxGeometry x="100" y="524.5" width="120" height="60" as="geometry" />
        </mxCell>
        <mxCell id="PTjTulGfdA1MYqJNyn4J-14" value="" style="edgeStyle=orthogonalEdgeStyle;rounded=0;orthogonalLoop=1;jettySize=auto;html=1;" edge="1" parent="1" source="PTjTulGfdA1MYqJNyn4J-11" target="PTjTulGfdA1MYqJNyn4J-13">
          <mxGeometry relative="1" as="geometry" />
        </mxCell>
        <mxCell id="PTjTulGfdA1MYqJNyn4J-11" value="获取 license 序列号&lt;br&gt;和磁盘序列号" style="whiteSpace=wrap;html=1;rounded=0;" vertex="1" parent="1">
          <mxGeometry x="294" y="100" width="120" height="60" as="geometry" />
        </mxCell>
        <mxCell id="PTjTulGfdA1MYqJNyn4J-16" value="" style="edgeStyle=orthogonalEdgeStyle;rounded=0;orthogonalLoop=1;jettySize=auto;html=1;" edge="1" parent="1" source="PTjTulGfdA1MYqJNyn4J-13" target="PTjTulGfdA1MYqJNyn4J-15">
          <mxGeometry relative="1" as="geometry" />
        </mxCell>
        <mxCell id="PTjTulGfdA1MYqJNyn4J-13" value="在激活工具中输入&lt;br&gt;license 序列号、&lt;br&gt;磁盘序列号" style="whiteSpace=wrap;html=1;rounded=0;" vertex="1" parent="1">
          <mxGeometry x="294" y="240" width="120" height="60" as="geometry" />
        </mxCell>
        <mxCell id="PTjTulGfdA1MYqJNyn4J-18" value="" style="edgeStyle=orthogonalEdgeStyle;rounded=0;orthogonalLoop=1;jettySize=auto;html=1;" edge="1" parent="1" source="PTjTulGfdA1MYqJNyn4J-15" target="PTjTulGfdA1MYqJNyn4J-17">
          <mxGeometry relative="1" as="geometry" />
        </mxCell>
        <mxCell id="PTjTulGfdA1MYqJNyn4J-15" value="获取激活文件并保存到工业爱智的硬盘" style="whiteSpace=wrap;html=1;rounded=0;" vertex="1" parent="1">
          <mxGeometry x="294" y="380" width="120" height="60" as="geometry" />
        </mxCell>
        <mxCell id="PTjTulGfdA1MYqJNyn4J-17" value="在工业爱智上安装硬盘，机器上电" style="whiteSpace=wrap;html=1;rounded=0;" vertex="1" parent="1">
          <mxGeometry x="294" y="520" width="120" height="60" as="geometry" />
        </mxCell>
        <mxCell id="PTjTulGfdA1MYqJNyn4J-20" value="" style="shape=table;startSize=0;container=1;collapsible=0;childLayout=tableLayout;" vertex="1" parent="1">
          <mxGeometry x="500" y="464.5" width="130" height="60" as="geometry" />
        </mxCell>
        <mxCell id="PTjTulGfdA1MYqJNyn4J-21" value="" style="shape=tableRow;horizontal=0;startSize=0;swimlaneHead=0;swimlaneBody=0;top=0;left=0;bottom=0;right=0;collapsible=0;dropTarget=0;fillColor=none;points=[[0,0.5],[1,0.5]];portConstraint=eastwest;" vertex="1" parent="PTjTulGfdA1MYqJNyn4J-20">
          <mxGeometry width="130" height="60" as="geometry" />
        </mxCell>
        <mxCell id="PTjTulGfdA1MYqJNyn4J-22" value="sda1" style="shape=partialRectangle;html=1;whiteSpace=wrap;connectable=0;overflow=hidden;fillColor=none;top=0;left=0;bottom=0;right=0;pointerEvents=1;" vertex="1" parent="PTjTulGfdA1MYqJNyn4J-21">
          <mxGeometry width="87" height="60" as="geometry">
            <mxRectangle width="87" height="60" as="alternateBounds" />
          </mxGeometry>
        </mxCell>
        <mxCell id="PTjTulGfdA1MYqJNyn4J-23" value="sda2" style="shape=partialRectangle;html=1;whiteSpace=wrap;connectable=0;overflow=hidden;fillColor=none;top=0;left=0;bottom=0;right=0;pointerEvents=1;" vertex="1" parent="PTjTulGfdA1MYqJNyn4J-21">
          <mxGeometry x="87" width="43" height="60" as="geometry">
            <mxRectangle width="43" height="60" as="alternateBounds" />
          </mxGeometry>
        </mxCell>
        <mxCell id="PTjTulGfdA1MYqJNyn4J-32" value="" style="shape=table;startSize=0;container=1;collapsible=0;childLayout=tableLayout;" vertex="1" parent="1">
          <mxGeometry x="500" y="290" width="130" height="60" as="geometry" />
        </mxCell>
        <mxCell id="PTjTulGfdA1MYqJNyn4J-39" value="" style="shape=tableRow;horizontal=0;startSize=0;swimlaneHead=0;swimlaneBody=0;top=0;left=0;bottom=0;right=0;collapsible=0;dropTarget=0;fillColor=none;points=[[0,0.5],[1,0.5]];portConstraint=eastwest;" vertex="1" parent="PTjTulGfdA1MYqJNyn4J-32">
          <mxGeometry width="130" height="60" as="geometry" />
        </mxCell>
        <mxCell id="PTjTulGfdA1MYqJNyn4J-40" value="sda" style="shape=partialRectangle;html=1;whiteSpace=wrap;connectable=0;overflow=hidden;fillColor=none;top=0;left=0;bottom=0;right=0;pointerEvents=1;" vertex="1" parent="PTjTulGfdA1MYqJNyn4J-39">
          <mxGeometry width="130" height="60" as="geometry">
            <mxRectangle width="130" height="60" as="alternateBounds" />
          </mxGeometry>
        </mxCell>
        <mxCell id="PTjTulGfdA1MYqJNyn4J-45" style="edgeStyle=orthogonalEdgeStyle;rounded=0;orthogonalLoop=1;jettySize=auto;html=1;exitX=1;exitY=0.5;exitDx=0;exitDy=0;dashed=1;" edge="1" parent="PTjTulGfdA1MYqJNyn4J-32" source="PTjTulGfdA1MYqJNyn4J-39" target="PTjTulGfdA1MYqJNyn4J-39">
          <mxGeometry relative="1" as="geometry" />
        </mxCell>
        <mxCell id="PTjTulGfdA1MYqJNyn4J-38" value="" style="curved=1;endArrow=classic;html=1;rounded=0;dashed=1;exitX=1;exitY=0.5;exitDx=0;exitDy=0;entryX=0;entryY=0.5;entryDx=0;entryDy=0;" edge="1" parent="1" source="PTjTulGfdA1MYqJNyn4J-7" target="PTjTulGfdA1MYqJNyn4J-39">
          <mxGeometry width="50" height="50" relative="1" as="geometry">
            <mxPoint x="390" y="420" as="sourcePoint" />
            <mxPoint x="540" y="290" as="targetPoint" />
            <Array as="points">
              <mxPoint x="320" y="340" />
              <mxPoint x="460" y="300" />
            </Array>
          </mxGeometry>
        </mxCell>
        <mxCell id="PTjTulGfdA1MYqJNyn4J-41" value="" style="curved=1;endArrow=classic;html=1;rounded=0;dashed=1;exitX=1;exitY=0;exitDx=0;exitDy=0;entryX=0;entryY=0.5;entryDx=0;entryDy=0;" edge="1" parent="1" source="PTjTulGfdA1MYqJNyn4J-9" target="PTjTulGfdA1MYqJNyn4J-21">
          <mxGeometry width="50" height="50" relative="1" as="geometry">
            <mxPoint x="270" y="520" as="sourcePoint" />
            <mxPoint x="320" y="470" as="targetPoint" />
            <Array as="points">
              <mxPoint x="270" y="470" />
            </Array>
          </mxGeometry>
        </mxCell>
        <mxCell id="PTjTulGfdA1MYqJNyn4J-46" value="Text" style="edgeLabel;html=1;align=center;verticalAlign=middle;resizable=0;points=[];" vertex="1" connectable="0" parent="PTjTulGfdA1MYqJNyn4J-41">
          <mxGeometry x="0.3752" y="-2" relative="1" as="geometry">
            <mxPoint as="offset" />
          </mxGeometry>
        </mxCell>
        <mxCell id="PTjTulGfdA1MYqJNyn4J-43" value="" style="curved=1;endArrow=classic;html=1;rounded=0;dashed=1;exitX=1;exitY=0.5;exitDx=0;exitDy=0;" edge="1" parent="1" source="PTjTulGfdA1MYqJNyn4J-15">
          <mxGeometry width="50" height="50" relative="1" as="geometry">
            <mxPoint x="530" y="640" as="sourcePoint" />
            <mxPoint x="610" y="480" as="targetPoint" />
            <Array as="points">
              <mxPoint x="510" y="340" />
            </Array>
          </mxGeometry>
        </mxCell>
        <mxCell id="PTjTulGfdA1MYqJNyn4J-44" value="拷贝激活文件" style="edgeLabel;html=1;align=center;verticalAlign=middle;resizable=0;points=[];" vertex="1" connectable="0" parent="PTjTulGfdA1MYqJNyn4J-43">
          <mxGeometry x="-0.4425" y="-21" relative="1" as="geometry">
            <mxPoint as="offset" />
          </mxGeometry>
        </mxCell>
        <mxCell id="PTjTulGfdA1MYqJNyn4J-47" value="" style="endArrow=none;dashed=1;html=1;dashPattern=1 3;strokeWidth=2;rounded=0;" edge="1" parent="1">
          <mxGeometry width="50" height="50" relative="1" as="geometry">
            <mxPoint x="80" y="620" as="sourcePoint" />
            <mxPoint x="80" y="10" as="targetPoint" />
          </mxGeometry>
        </mxCell>
        <mxCell id="PTjTulGfdA1MYqJNyn4J-48" value="" style="endArrow=none;dashed=1;html=1;dashPattern=1 3;strokeWidth=2;rounded=0;" edge="1" parent="1">
          <mxGeometry width="50" height="50" relative="1" as="geometry">
            <mxPoint x="230" y="620" as="sourcePoint" />
            <mxPoint x="230" y="10" as="targetPoint" />
          </mxGeometry>
        </mxCell>
        <mxCell id="PTjTulGfdA1MYqJNyn4J-49" value="" style="endArrow=none;dashed=1;html=1;dashPattern=1 3;strokeWidth=2;rounded=0;" edge="1" parent="1">
          <mxGeometry width="50" height="50" relative="1" as="geometry">
            <mxPoint x="430" y="620" as="sourcePoint" />
            <mxPoint x="430" y="10" as="targetPoint" />
          </mxGeometry>
        </mxCell>
        <mxCell id="PTjTulGfdA1MYqJNyn4J-50" value="" style="endArrow=none;dashed=1;html=1;dashPattern=1 3;strokeWidth=2;rounded=0;" edge="1" parent="1">
          <mxGeometry width="50" height="50" relative="1" as="geometry">
            <mxPoint x="650" y="620" as="sourcePoint" />
            <mxPoint x="650" y="10" as="targetPoint" />
          </mxGeometry>
        </mxCell>
        <mxCell id="PTjTulGfdA1MYqJNyn4J-51" value="&lt;font style=&quot;font-size: 14px;&quot;&gt;安装 ghost 镜像&lt;/font&gt;" style="text;html=1;strokeColor=none;fillColor=none;align=center;verticalAlign=middle;whiteSpace=wrap;rounded=0;" vertex="1" parent="1">
          <mxGeometry x="105" y="20" width="110" height="30" as="geometry" />
        </mxCell>
        <mxCell id="PTjTulGfdA1MYqJNyn4J-53" value="&lt;span style=&quot;font-size: 14px;&quot;&gt;获取激活文件&lt;/span&gt;" style="text;html=1;strokeColor=none;fillColor=none;align=center;verticalAlign=middle;whiteSpace=wrap;rounded=0;" vertex="1" parent="1">
          <mxGeometry x="280" y="20" width="110" height="30" as="geometry" />
        </mxCell>
        <mxCell id="PTjTulGfdA1MYqJNyn4J-54" value="&lt;span style=&quot;font-size: 14px;&quot;&gt;硬盘变化&lt;/span&gt;" style="text;html=1;strokeColor=none;fillColor=none;align=center;verticalAlign=middle;whiteSpace=wrap;rounded=0;" vertex="1" parent="1">
          <mxGeometry x="490" y="20" width="110" height="30" as="geometry" />
        </mxCell>
        <mxCell id="PTjTulGfdA1MYqJNyn4J-57" value="" style="edgeStyle=orthogonalEdgeStyle;rounded=0;orthogonalLoop=1;jettySize=auto;html=1;fontSize=14;" edge="1" parent="1" source="PTjTulGfdA1MYqJNyn4J-55" target="PTjTulGfdA1MYqJNyn4J-56">
          <mxGeometry relative="1" as="geometry" />
        </mxCell>
        <mxCell id="PTjTulGfdA1MYqJNyn4J-55" value="工业爱智上电" style="rounded=0;whiteSpace=wrap;html=1;fontSize=14;" vertex="1" parent="1">
          <mxGeometry x="200" y="970" width="120" height="60" as="geometry" />
        </mxCell>
        <mxCell id="PTjTulGfdA1MYqJNyn4J-59" value="" style="edgeStyle=orthogonalEdgeStyle;rounded=0;orthogonalLoop=1;jettySize=auto;html=1;fontSize=14;" edge="1" parent="1" source="PTjTulGfdA1MYqJNyn4J-56" target="PTjTulGfdA1MYqJNyn4J-58">
          <mxGeometry relative="1" as="geometry" />
        </mxCell>
        <mxCell id="PTjTulGfdA1MYqJNyn4J-56" value="启动 ACRN" style="whiteSpace=wrap;html=1;fontSize=14;rounded=0;" vertex="1" parent="1">
          <mxGeometry x="200" y="1110" width="120" height="60" as="geometry" />
        </mxCell>
        <mxCell id="PTjTulGfdA1MYqJNyn4J-61" value="" style="edgeStyle=orthogonalEdgeStyle;rounded=0;orthogonalLoop=1;jettySize=auto;html=1;fontSize=14;" edge="1" parent="1" source="PTjTulGfdA1MYqJNyn4J-58" target="PTjTulGfdA1MYqJNyn4J-60">
          <mxGeometry relative="1" as="geometry" />
        </mxCell>
        <mxCell id="PTjTulGfdA1MYqJNyn4J-58" value="启动 Ubuntu" style="whiteSpace=wrap;html=1;fontSize=14;rounded=0;" vertex="1" parent="1">
          <mxGeometry x="200" y="1250" width="120" height="60" as="geometry" />
        </mxCell>
        <mxCell id="PTjTulGfdA1MYqJNyn4J-87" style="edgeStyle=orthogonalEdgeStyle;rounded=0;orthogonalLoop=1;jettySize=auto;html=1;entryX=0.5;entryY=0;entryDx=0;entryDy=0;fontSize=14;" edge="1" parent="1" source="PTjTulGfdA1MYqJNyn4J-60" target="PTjTulGfdA1MYqJNyn4J-64">
          <mxGeometry relative="1" as="geometry" />
        </mxCell>
        <mxCell id="PTjTulGfdA1MYqJNyn4J-60" value="自动执行 EdgerOS 启动脚本" style="whiteSpace=wrap;html=1;fontSize=14;rounded=0;" vertex="1" parent="1">
          <mxGeometry x="200" y="1390" width="120" height="60" as="geometry" />
        </mxCell>
        <mxCell id="PTjTulGfdA1MYqJNyn4J-67" value="" style="edgeStyle=orthogonalEdgeStyle;rounded=0;orthogonalLoop=1;jettySize=auto;html=1;fontSize=14;" edge="1" parent="1" source="PTjTulGfdA1MYqJNyn4J-64" target="PTjTulGfdA1MYqJNyn4J-66">
          <mxGeometry relative="1" as="geometry" />
        </mxCell>
        <mxCell id="PTjTulGfdA1MYqJNyn4J-68" value="否" style="edgeLabel;html=1;align=center;verticalAlign=middle;resizable=0;points=[];fontSize=14;" vertex="1" connectable="0" parent="PTjTulGfdA1MYqJNyn4J-67">
          <mxGeometry x="-0.3" relative="1" as="geometry">
            <mxPoint as="offset" />
          </mxGeometry>
        </mxCell>
        <mxCell id="PTjTulGfdA1MYqJNyn4J-88" style="edgeStyle=orthogonalEdgeStyle;rounded=0;orthogonalLoop=1;jettySize=auto;html=1;exitX=1;exitY=0.5;exitDx=0;exitDy=0;fontSize=14;entryX=0.5;entryY=0;entryDx=0;entryDy=0;" edge="1" parent="1" source="PTjTulGfdA1MYqJNyn4J-64" target="PTjTulGfdA1MYqJNyn4J-72">
          <mxGeometry relative="1" as="geometry">
            <mxPoint x="454" y="1080" as="targetPoint" />
            <Array as="points">
              <mxPoint x="532" y="860" />
              <mxPoint x="532" y="1050" />
              <mxPoint x="454" y="1050" />
            </Array>
          </mxGeometry>
        </mxCell>
        <mxCell id="PTjTulGfdA1MYqJNyn4J-89" value="是" style="edgeLabel;html=1;align=center;verticalAlign=middle;resizable=0;points=[];fontSize=14;" vertex="1" connectable="0" parent="PTjTulGfdA1MYqJNyn4J-88">
          <mxGeometry x="-0.3875" y="2" relative="1" as="geometry">
            <mxPoint x="-4" y="-4" as="offset" />
          </mxGeometry>
        </mxCell>
        <mxCell id="PTjTulGfdA1MYqJNyn4J-64" value="是否存在&lt;br&gt;&amp;nbsp;sda3 分区" style="rhombus;whiteSpace=wrap;html=1;fontSize=14;rounded=0;" vertex="1" parent="1">
          <mxGeometry x="396" y="805" width="116" height="110" as="geometry" />
        </mxCell>
        <mxCell id="PTjTulGfdA1MYqJNyn4J-91" style="edgeStyle=orthogonalEdgeStyle;rounded=0;orthogonalLoop=1;jettySize=auto;html=1;exitX=0.5;exitY=1;exitDx=0;exitDy=0;entryX=0.5;entryY=0;entryDx=0;entryDy=0;fontSize=14;" edge="1" parent="1" source="PTjTulGfdA1MYqJNyn4J-66" target="PTjTulGfdA1MYqJNyn4J-72">
          <mxGeometry relative="1" as="geometry" />
        </mxCell>
        <mxCell id="PTjTulGfdA1MYqJNyn4J-66" value="创建并挂载&lt;br&gt;&amp;nbsp;sda3 分区" style="whiteSpace=wrap;html=1;fontSize=14;rounded=0;" vertex="1" parent="1">
          <mxGeometry x="394" y="970" width="120" height="60" as="geometry" />
        </mxCell>
        <mxCell id="PTjTulGfdA1MYqJNyn4J-75" value="" style="edgeStyle=orthogonalEdgeStyle;rounded=0;orthogonalLoop=1;jettySize=auto;html=1;fontSize=14;" edge="1" parent="1" source="PTjTulGfdA1MYqJNyn4J-72" target="PTjTulGfdA1MYqJNyn4J-74">
          <mxGeometry relative="1" as="geometry" />
        </mxCell>
        <mxCell id="PTjTulGfdA1MYqJNyn4J-76" value="否" style="edgeLabel;html=1;align=center;verticalAlign=middle;resizable=0;points=[];fontSize=14;" vertex="1" connectable="0" parent="PTjTulGfdA1MYqJNyn4J-75">
          <mxGeometry x="-0.219" y="2" relative="1" as="geometry">
            <mxPoint as="offset" />
          </mxGeometry>
        </mxCell>
        <mxCell id="PTjTulGfdA1MYqJNyn4J-93" style="edgeStyle=orthogonalEdgeStyle;rounded=0;orthogonalLoop=1;jettySize=auto;html=1;exitX=1;exitY=0.5;exitDx=0;exitDy=0;entryX=1;entryY=0.5;entryDx=0;entryDy=0;fontSize=14;" edge="1" parent="1" source="PTjTulGfdA1MYqJNyn4J-72" target="PTjTulGfdA1MYqJNyn4J-81">
          <mxGeometry relative="1" as="geometry" />
        </mxCell>
        <mxCell id="PTjTulGfdA1MYqJNyn4J-94" value="是" style="edgeLabel;html=1;align=center;verticalAlign=middle;resizable=0;points=[];fontSize=14;" vertex="1" connectable="0" parent="PTjTulGfdA1MYqJNyn4J-93">
          <mxGeometry x="-0.1486" y="1" relative="1" as="geometry">
            <mxPoint y="-88" as="offset" />
          </mxGeometry>
        </mxCell>
        <mxCell id="PTjTulGfdA1MYqJNyn4J-72" value="是否存在&lt;br&gt;爱智虚拟&lt;br&gt;磁盘文件" style="rhombus;whiteSpace=wrap;html=1;fontSize=14;rounded=0;" vertex="1" parent="1">
          <mxGeometry x="396" y="1085" width="116" height="110" as="geometry" />
        </mxCell>
        <mxCell id="PTjTulGfdA1MYqJNyn4J-86" style="edgeStyle=orthogonalEdgeStyle;rounded=0;orthogonalLoop=1;jettySize=auto;html=1;entryX=0.5;entryY=0;entryDx=0;entryDy=0;fontSize=14;" edge="1" parent="1" source="PTjTulGfdA1MYqJNyn4J-74" target="PTjTulGfdA1MYqJNyn4J-79">
          <mxGeometry relative="1" as="geometry" />
        </mxCell>
        <mxCell id="PTjTulGfdA1MYqJNyn4J-74" value="解压虚拟磁盘备份文件到 sda3 分区" style="whiteSpace=wrap;html=1;fontSize=14;rounded=0;" vertex="1" parent="1">
          <mxGeometry x="396" y="1250" width="120" height="60" as="geometry" />
        </mxCell>
        <mxCell id="PTjTulGfdA1MYqJNyn4J-92" style="edgeStyle=orthogonalEdgeStyle;rounded=0;orthogonalLoop=1;jettySize=auto;html=1;exitX=0.5;exitY=1;exitDx=0;exitDy=0;entryX=0.5;entryY=0;entryDx=0;entryDy=0;fontSize=14;" edge="1" parent="1" source="PTjTulGfdA1MYqJNyn4J-79" target="PTjTulGfdA1MYqJNyn4J-81">
          <mxGeometry relative="1" as="geometry" />
        </mxCell>
        <mxCell id="PTjTulGfdA1MYqJNyn4J-79" value="重命名备份文件名为虚拟磁盘文件名" style="whiteSpace=wrap;html=1;fontSize=14;rounded=0;" vertex="1" parent="1">
          <mxGeometry x="396" y="1390" width="120" height="60" as="geometry" />
        </mxCell>
        <mxCell id="PTjTulGfdA1MYqJNyn4J-81" value="启动 EdgerOS 虚拟机" style="whiteSpace=wrap;html=1;fontSize=14;rounded=0;" vertex="1" parent="1">
          <mxGeometry x="396" y="1510" width="120" height="60" as="geometry" />
        </mxCell>
        <mxCell id="PTjTulGfdA1MYqJNyn4J-99" value="" style="shape=table;startSize=0;container=1;collapsible=0;childLayout=tableLayout;" vertex="1" parent="1">
          <mxGeometry x="600" y="830" width="130" height="60" as="geometry" />
        </mxCell>
        <mxCell id="PTjTulGfdA1MYqJNyn4J-100" value="" style="shape=tableRow;horizontal=0;startSize=0;swimlaneHead=0;swimlaneBody=0;top=0;left=0;bottom=0;right=0;collapsible=0;dropTarget=0;fillColor=none;points=[[0,0.5],[1,0.5]];portConstraint=eastwest;" vertex="1" parent="PTjTulGfdA1MYqJNyn4J-99">
          <mxGeometry width="130" height="60" as="geometry" />
        </mxCell>
        <mxCell id="PTjTulGfdA1MYqJNyn4J-101" value="sda1" style="shape=partialRectangle;html=1;whiteSpace=wrap;connectable=0;overflow=hidden;fillColor=none;top=0;left=0;bottom=0;right=0;pointerEvents=1;" vertex="1" parent="PTjTulGfdA1MYqJNyn4J-100">
          <mxGeometry width="87" height="60" as="geometry">
            <mxRectangle width="87" height="60" as="alternateBounds" />
          </mxGeometry>
        </mxCell>
        <mxCell id="PTjTulGfdA1MYqJNyn4J-102" value="sda2" style="shape=partialRectangle;html=1;whiteSpace=wrap;connectable=0;overflow=hidden;fillColor=none;top=0;left=0;bottom=0;right=0;pointerEvents=1;" vertex="1" parent="PTjTulGfdA1MYqJNyn4J-100">
          <mxGeometry x="87" width="43" height="60" as="geometry">
            <mxRectangle width="43" height="60" as="alternateBounds" />
          </mxGeometry>
        </mxCell>
        <mxCell id="PTjTulGfdA1MYqJNyn4J-103" value="" style="shape=table;startSize=0;container=1;collapsible=0;childLayout=tableLayout;" vertex="1" parent="1">
          <mxGeometry x="600" y="970" width="230" height="60" as="geometry" />
        </mxCell>
        <mxCell id="PTjTulGfdA1MYqJNyn4J-104" value="" style="shape=tableRow;horizontal=0;startSize=0;swimlaneHead=0;swimlaneBody=0;top=0;left=0;bottom=0;right=0;collapsible=0;dropTarget=0;fillColor=none;points=[[0,0.5],[1,0.5]];portConstraint=eastwest;" vertex="1" parent="PTjTulGfdA1MYqJNyn4J-103">
          <mxGeometry width="230" height="60" as="geometry" />
        </mxCell>
        <mxCell id="PTjTulGfdA1MYqJNyn4J-105" value="sda1" style="shape=partialRectangle;html=1;whiteSpace=wrap;connectable=0;overflow=hidden;fillColor=none;top=0;left=0;bottom=0;right=0;pointerEvents=1;" vertex="1" parent="PTjTulGfdA1MYqJNyn4J-104">
          <mxGeometry width="90" height="60" as="geometry">
            <mxRectangle width="90" height="60" as="alternateBounds" />
          </mxGeometry>
        </mxCell>
        <mxCell id="PTjTulGfdA1MYqJNyn4J-106" value="sda2" style="shape=partialRectangle;html=1;whiteSpace=wrap;connectable=0;overflow=hidden;fillColor=none;top=0;left=0;bottom=0;right=0;pointerEvents=1;" vertex="1" parent="PTjTulGfdA1MYqJNyn4J-104">
          <mxGeometry x="90" width="60" height="60" as="geometry">
            <mxRectangle width="60" height="60" as="alternateBounds" />
          </mxGeometry>
        </mxCell>
        <mxCell id="PTjTulGfdA1MYqJNyn4J-108" value="sda3" style="shape=partialRectangle;html=1;whiteSpace=wrap;connectable=0;overflow=hidden;fillColor=none;top=0;left=0;bottom=0;right=0;pointerEvents=1;" vertex="1" parent="PTjTulGfdA1MYqJNyn4J-104">
          <mxGeometry x="150" width="80" height="60" as="geometry">
            <mxRectangle width="80" height="60" as="alternateBounds" />
          </mxGeometry>
        </mxCell>
        <mxCell id="PTjTulGfdA1MYqJNyn4J-118" value="" style="shape=flexArrow;endArrow=classic;html=1;rounded=0;fontSize=14;" edge="1" parent="1">
          <mxGeometry width="50" height="50" relative="1" as="geometry">
            <mxPoint x="629" y="900" as="sourcePoint" />
            <mxPoint x="629" y="960" as="targetPoint" />
          </mxGeometry>
        </mxCell>
        <mxCell id="PTjTulGfdA1MYqJNyn4J-127" value="" style="curved=1;endArrow=classic;html=1;rounded=0;dashed=1;fontSize=14;exitX=1;exitY=0.5;exitDx=0;exitDy=0;entryX=0.87;entryY=1.017;entryDx=0;entryDy=0;entryPerimeter=0;" edge="1" parent="1" source="PTjTulGfdA1MYqJNyn4J-74" target="PTjTulGfdA1MYqJNyn4J-104">
          <mxGeometry width="50" height="50" relative="1" as="geometry">
            <mxPoint x="650" y="1250" as="sourcePoint" />
            <mxPoint x="700" y="1200" as="targetPoint" />
            <Array as="points">
              <mxPoint x="740" y="1180" />
            </Array>
          </mxGeometry>
        </mxCell>
        <mxCell id="PTjTulGfdA1MYqJNyn4J-129" value="" style="shape=flexArrow;endArrow=classic;html=1;rounded=0;fontSize=14;" edge="1" parent="1">
          <mxGeometry width="50" height="50" relative="1" as="geometry">
            <mxPoint x="600" y="370" as="sourcePoint" />
            <mxPoint x="600" y="430" as="targetPoint" />
          </mxGeometry>
        </mxCell>
      </root>
    </mxGraphModel>
  </diagram>
</mxfile>
